<svg width="20" height="20" viewBox="0 0 20 20" fill="none" xmlns="http://www.w3.org/2000/svg">
<g clip-path="url(#clip0_9_11)">
<path d="M17.2695 3.13107L18.4839 3.02914L18.3858 1.86069L15.0644 2.13944L15.3432 5.46086L16.5116 5.3628L16.3895 3.90789C17.9505 5.53954 18.8274 7.70322 18.8274 9.99994C18.8274 12.3578 17.9092 14.5746 16.242 16.2419C14.5747 17.9092 12.3579 18.8274 10 18.8274C7.64213 18.8274 5.42533 17.9092 3.75804 16.242C2.09074 14.5747 1.17256 12.3579 1.17256 10C1.17256 7.64213 2.09078 5.42533 3.75804 3.75804C5.4253 2.09074 7.64209 1.17256 10 1.17256V0C7.32894 0 4.81772 1.04017 2.92896 2.92896C1.04017 4.81768 0 7.3289 0 10C0 12.6711 1.04017 15.1823 2.92896 17.0711C4.81772 18.9598 7.32894 20 10 20C12.6711 20 15.1823 18.9599 17.0711 17.0711C18.9598 15.1823 20 12.6711 20 10C20 7.41348 19.0184 4.9757 17.2695 3.13107Z" fill="#EACC97"/>
<path d="M9.41366 5.19748V3.82352C6.45956 4.10173 4.10163 6.45962 3.82343 9.41375H5.19739V10.5863H3.82343C4.10163 13.5404 6.45953 15.8983 9.41366 16.1765V14.8026H10.5862V16.1765C13.5403 15.8983 15.8982 13.5404 16.1765 10.5863H14.8025V9.41375H16.1765C15.8982 6.45966 13.5404 4.10173 10.5862 3.82352V5.19748H9.41366ZM10.5862 10.2729L8.38001 12.1293L7.62508 11.2321L9.41366 9.72714V6.43046H10.5862V10.2729Z" fill="#EACC97"/>
</g>
<defs>
<clipPath id="clip0_9_11">
<rect width="20" height="20" fill="white"/>
</clipPath>
</defs>
</svg>
