<svg width="46" height="33" viewBox="0 0 46 33" fill="none" xmlns="http://www.w3.org/2000/svg">
<g id="left-quote (2) 1" clip-path="url(#clip0_13_899)">
<g id="Group">
<path id="Vector" d="M18.48 -2.22681C19.6304 -2.70922 20.1128 -4.08223 19.5933 -5.19549L17.7749 -9.01766C17.2554 -10.0934 15.9937 -10.5762 14.8805 -10.0934C11.7263 -8.75753 9.01735 -7.01343 6.86506 -4.89825C4.23036 -2.41235 2.44916 0.444997 1.48434 3.59921C0.519518 6.79091 0 11.1322 0 16.6614V28.0537C0 29.2783 1.00193 30.2802 2.22651 30.2802H16.8101C18.0347 30.2802 19.0366 29.2783 19.0366 28.0537V13.4701C19.0366 12.2451 18.0347 11.2436 16.8101 11.2436H9.83374C9.90796 7.49523 10.7986 4.48982 12.4313 2.22583C13.7672 0.408259 15.7711 -1.07608 18.48 -2.22681Z" fill="#93B0D0"/>
<path id="Vector_2" d="M44.6786 -2.22698C45.829 -2.70939 46.311 -4.0824 45.7919 -5.19565L43.9736 -8.98034C43.454 -10.0565 42.1923 -10.5389 41.0791 -10.0565C37.962 -8.72058 35.2898 -6.97649 33.1008 -4.89841C30.4657 -2.37504 28.6478 0.482312 27.6826 3.63653C26.7178 6.75327 26.2357 11.0953 26.2357 16.6616V28.0539C26.2357 29.2785 27.2376 30.2804 28.4622 30.2804H43.0458C44.2704 30.2804 45.2724 29.2785 45.2724 28.0539V13.4703C45.2724 12.2453 44.2704 11.2438 43.0458 11.2438H36.0323C36.1066 7.49544 36.9975 4.49002 38.6299 2.22604C39.9658 0.408095 41.9697 -1.07624 44.6786 -2.22698Z" fill="#93B0D0"/>
</g>
</g>
<defs>
<clipPath id="clip0_13_899">
<rect width="46" height="33" fill="white"/>
</clipPath>
</defs>
</svg>
