<svg width="22" height="22" viewBox="0 0 22 22" fill="none" xmlns="http://www.w3.org/2000/svg">
<g id="left-quote (2) 2" clip-path="url(#clip0_13_1259)">
<g id="Group">
<path id="Vector" d="M9.28953 5.09774C9.80969 4.87902 10.0278 4.25654 9.79291 3.75182L8.97072 2.01895C8.73581 1.53122 8.1653 1.31234 7.66192 1.53122C6.23566 2.13688 5.01076 2.92761 4.03755 3.88658C2.84621 5.01362 2.0408 6.30906 1.60453 7.7391C1.16826 9.18613 0.93335 11.1544 0.93335 13.6611V18.8261C0.93335 19.3813 1.3864 19.8355 1.94012 19.8355H8.53445C9.08818 19.8355 9.54122 19.3813 9.54122 18.8261V12.2143C9.54122 11.6589 9.08818 11.2048 8.53445 11.2048H5.37991C5.41347 9.50545 5.81618 8.14288 6.55447 7.11644C7.15854 6.29241 8.06463 5.61945 9.28953 5.09774Z" fill="white"/>
<path id="Vector_2" d="M21.1358 5.09793C21.656 4.87921 21.874 4.25673 21.6392 3.75201L20.817 2.03613C20.5821 1.54823 20.0116 1.32952 19.5082 1.54823C18.0988 2.1539 16.8905 2.94462 15.9007 3.88677C14.7091 5.0308 13.8871 6.32624 13.4507 7.75628C13.0144 9.16933 12.7964 11.1379 12.7964 13.6615V18.8265C12.7964 19.3817 13.2495 19.8359 13.8032 19.8359H20.3975C20.9513 19.8359 21.4043 19.3817 21.4043 18.8265V12.2146C21.4043 11.6593 20.9513 11.2052 20.3975 11.2052H17.2262C17.2598 9.50581 17.6627 8.14323 18.4008 7.1168C19.0049 6.2926 19.9109 5.61964 21.1358 5.09793Z" fill="white"/>
</g>
</g>
<defs>
<clipPath id="clip0_13_1259">
<rect width="20.8" height="20.8552" fill="white" transform="translate(0.93335 0.213867)"/>
</clipPath>
</defs>
</svg>
